<?xml version="1.0" encoding="utf-8"?>
<!-- Generator: Adobe Illustrator 22.0.0, SVG Export Plug-In . SVG Version: 6.00 Build 0)  -->
<svg version="1.1" id="Layer_1" xmlns="http://www.w3.org/2000/svg" xmlns:xlink="http://www.w3.org/1999/xlink" x="0px" y="0px"
	 viewBox="0 0 1920 1080" style="enable-background:new 0 0 1920 1080;" xml:space="preserve">
<style type="text/css">
	.st0{fill:url(#SVGID_1_);}
</style>
<linearGradient id="SVGID_1_" gradientUnits="userSpaceOnUse" x1="5.6404" y1="538.459" x2="1510.368" y2="538.459">
	<stop  offset="0" style="stop-color:#0039FF"/>
	<stop  offset="0.4084" style="stop-color:#0039FF"/>
	<stop  offset="0.7011" style="stop-color:#0090FF"/>
	<stop  offset="0.9944" style="stop-color:#0090FF"/>
</linearGradient>
<path class="st0" d="M1348.5,290.5c103.2,44.2,141.8,147.9,144,154c19.7,55.5,34.2,158.2-19,210c-68.2,66.4-168.4-27.9-324-3
	c-193.9,31-200.4,203.5-452,333c-88,45.3-253,130.2-408,75c-210.5-75-322-380-272-628C56.6,237.7,209,5.7,386.5-0.5
	c224.9-7.9,294,353.5,567,357C1117.7,358.6,1205.6,229.3,1348.5,290.5z"/>
</svg>
